<?xml version="1.0" encoding="UTF-8" standalone="no"?>
<!-- Created with Inkscape (http://www.inkscape.org/) -->

<svg
   width="210mm"
   height="297mm"
   viewBox="0 0 210 297"
   version="1.1"
   id="svg135"
   inkscape:version="1.1.1 (3bf5ae0d25, 2021-09-20)"
   sodipodi:docname="logo.svg"
   inkscape:export-filename="/home/mj/src/business/logo.png"
   inkscape:export-xdpi="96"
   inkscape:export-ydpi="96"
   xmlns:inkscape="http://www.inkscape.org/namespaces/inkscape"
   xmlns:sodipodi="http://sodipodi.sourceforge.net/DTD/sodipodi-0.dtd"
   xmlns="http://www.w3.org/2000/svg"
   xmlns:svg="http://www.w3.org/2000/svg">
  <sodipodi:namedview
     id="namedview137"
     pagecolor="#ffffff"
     bordercolor="#666666"
     borderopacity="1.0"
     inkscape:pageshadow="2"
     inkscape:pageopacity="0.0"
     inkscape:pagecheckerboard="0"
     inkscape:document-units="mm"
     showgrid="false"
     inkscape:zoom="2.4441213"
     inkscape:cx="90.830189"
     inkscape:cy="499.56604"
     inkscape:window-width="1916"
     inkscape:window-height="2121"
     inkscape:window-x="0"
     inkscape:window-y="18"
     inkscape:window-maximized="1"
     inkscape:current-layer="layer1"
     inkscape:snap-nodes="false" />
  <defs
     id="defs132" />
  <g
     inkscape:label="Layer 1"
     inkscape:groupmode="layer"
     id="layer1">
    <path
       style="fill:none;stroke:#000000;stroke-width:0.3;stroke-opacity:1;stroke-miterlimit:4;stroke-dasharray:none;stroke-linejoin:round;stroke-linecap:round"
       d="m 79.108937,64.428227 c 4.54826,0.07422 9.047713,0.712967 13.432763,2.057238 9.94046,-1.222647 28.59381,1.693585 37.09696,11.772408 l -3.21014,2.104782 c 6.81837,2.056066 11.32409,5.89353 14.2322,11.748635 l -5.62343,1.11311 c 0.46684,2.01101 0.5627,3.992741 -2.99361,6.545851 -3.94173,7.302909 -8.74436,7.115679 -13.4028,8.181929 1.78839,-3.39648 1.17103,-8.032849 -0.447,-8.784469 -7.8967,-1.99462 -16.34793,8.389319 -14.02137,13.449819 3.16108,2.29038 10.1859,-1.85737 12.67623,-4.59868 1.9929,4.77071 1.76669,6.02022 1.54719,7.81554 l 2.59726,-1.02733 c -0.33452,7.85347 -15.59528,9.78938 -23.82232,9.39168 -2.24782,-0.10866 -5.74105,-7.65179 -6.36292,-10.44278 -0.7654,-3.43521 -1.70169,-7.12066 -1.17254,-9.90534 0.87273,-4.103989 2.20978,-6.531999 -0.14159,-6.227519 C 36.300561,149.57693 96.9707,89.524876 39.673613,80.810689 49.332251,76.018919 55.614285,72.57919 65.109271,70.384453 l -3.644739,-3.74241 c 5.868495,-1.471583 11.796625,-2.309246 17.644405,-2.213816 z"
       id="path12386"
       sodipodi:nodetypes="sccccccccccccsscccccs" />
    <rect
       style="fill:none;stroke:#000000;stroke-width:0.223669;stroke-opacity:0"
       id="rect13725"
       width="101.89822"
       height="101.89822"
       x="39.178577"
       y="42.741158" />
  </g>
</svg>
